<?xml version="1.0" encoding="utf-8"?>
<!-- Generator: Adobe Illustrator 28.2.0, SVG Export Plug-In . SVG Version: 6.00 Build 0)  -->
<svg version="1.1" id="Ebene_1" xmlns="http://www.w3.org/2000/svg" xmlns:xlink="http://www.w3.org/1999/xlink" x="0px" y="0px"
	 viewBox="0 0 283.46 425.2" style="enable-background:new 0 0 283.46 425.2;" xml:space="preserve">
<style type="text/css">
	.st0{clip-path:url(#SVGID_00000133511525677027196380000009174715865917366200_);fill:#86181C;}
</style>
<g>
	<defs>
		<rect id="SVGID_1_" x="5.63" y="14.22" width="272.21" height="396.76"/>
	</defs>
	<clipPath id="SVGID_00000140734117942087406940000006381626586217979539_">
		<use xlink:href="#SVGID_1_"  style="overflow:visible;"/>
	</clipPath>
	<path style="clip-path:url(#SVGID_00000140734117942087406940000006381626586217979539_);fill:#86181C;" d="M208.46,321.94
		c-19.88,29.97-60.39,30.9-64.68,30.93c-6.22,0.05-38.86-0.37-61.01-25.09c-3.14-3.5-20.73-23.15-14.71-34.61
		c5.44-10.35,24.99-4.2,75.07-4.32c47.06-0.11,67.3-5.65,73.11,5.19C221.05,302.97,212.32,316.13,208.46,321.94 M65.15,222.4
		c-0.46-12.54,15.49-17.79,22.78-7.75c0.91,1.59,1.82,3.19,2.05,5.01c0.68,3.42,0,20.3-0.23,23.72c0,11.17-13.21,17.1-21.18,9.13
		c-1.82-1.83-3.19-4.34-3.64-6.62C64.46,242.69,65.38,225.59,65.15,222.4 M187.32,222.4c-0.46-12.54,15.37-17.79,22.6-7.75
		c0.91,1.59,1.81,3.19,2.03,5.01c0.68,3.42,0,20.3-0.22,23.72c0,11.17-13.11,17.1-21.02,9.13c-1.8-1.83-3.16-4.34-3.61-6.62
		C186.65,242.69,187.55,225.59,187.32,222.4 M264.49,181.98C236.42,74.59,148.07,6.8,135.88,14.87
		c-9.27,6.15,29.79,53.48,14.39,116.49c-7.25,29.67-26.71,63.32-30.72,61.87c-1.38-0.5-1-5.14-0.43-9.09
		c4.85-33.82-10.75-62.94-15.14-72.25c-6.91-14.67-22.9-40.55-33.07-37.8c-8.49,2.28-6.2,22.69-12.79,50.35
		c-8.91,37.42-25.54,53.82-36.35,73.98C-3.74,245.98-2.55,333.8,51.19,380.14c50.36,43.41,134.16,39.46,183.01-2.17
		C300.91,321.12,273.73,217.33,264.49,181.98"/>
</g>
</svg>
